<svg width="40" height="47" viewBox="0 0 40 47" fill="none" xmlns="http://www.w3.org/2000/svg">
<path d="M12.1223 0H18.1223L26.6222 16.4999L29.6222 0H35.1221L39.3721 22.7498H34.6221L32.1222 5.99996L29.1222 22.7498H26.1222L17.3723 6.24995L20.6223 22.7498H16.1223L12.1223 0Z" fill="#B026FF"/>
<path d="M16 24H20.5484V33.4999H34.6988V24H39.4998V46.9998H34.6988V37.2499H20.5484V46.9998H16V24Z" fill="#B026FF"/>
<rect x="11.4998" y="22.999" width="3.49997" height="23.9998" fill="#B026FF"/>
<rect x="3.62231" y="47" width="5.49996" height="10.9999" transform="rotate(-90 3.62231 47)" fill="#B026FF"/>
<rect x="9.38696" y="0.327148" width="5.37159" height="7.99994" transform="rotate(80.5945 9.38696 0.327148)" fill="#B026FF"/>
<path d="M0.0147699 1.88037L3.46769 1.3084L7.22981 24.02L3.62229 23.7503L0.0147699 1.88037Z" fill="#B026FF"/>
<rect x="3.62231" y="29.5" width="3.49997" height="16.4449" fill="#B026FF"/>
<rect x="7.90674" y="0.572266" width="3.49997" height="16.4446" transform="rotate(-9.40547 7.90674 0.572266)" fill="#B026FF"/>
<rect x="3.62231" y="23.6963" width="3.82647" height="10.9999" transform="rotate(-75 3.62231 23.6963)" fill="#B026FF"/>
</svg>
